<?xml version="1.0" encoding="utf-8"?>
<!-- Generator: Adobe Illustrator 23.0.1, SVG Export Plug-In . SVG Version: 6.00 Build 0)  -->
<svg xmlns="http://www.w3.org/2000/svg" xmlns:xlink="http://www.w3.org/1999/xlink" version="1.1" id="Layer_1" x="0px" y="0px" viewBox="0 0 60 60" style="enable-background:new 0 0 60 60;" xml:space="preserve" width="512" height="512">
<style type="text/css">
	.st0{fill:#556080;}
	.st1{fill:#7383BF;}
	.st2{fill:#1E3CA0;}
	.st3{fill:#ED8319;}
	.st4{fill:#D37D27;}
	.st5{fill:#FBCE9D;}
	.st6{fill:#EBBA16;}
	.st7{fill:#415770;}
	.st8{fill:#4D007E;}
</style>
<g id="_x39_-Hoodie">
	<path class="st0" d="M44,49H16C7.8,52.8,1,53.8,1,59h33.1H36h23C59,53.8,52.2,52.8,44,49z"/>
	<path class="st1" d="M55.4,20.1c-0.2-0.4-0.3-0.7-0.5-1.1c0,0-4.7-9.6-12.6-14.9C39.3,2,35.7,1,32,1h-2h-2c-3.7,0-7.3,1-10.3,3.1   C9.8,9.4,5.1,19,5.1,19c-0.2,0.4-0.4,0.7-0.5,1.1c-3.3,7.4-1.4,16,4.3,21.8L25.9,59H30h4.1l16.9-17.1C56.8,36,58.7,27.4,55.4,20.1z   "/>
	<path class="st2" d="M34.1,59l16.9-17.1c3.8-3.9,5.9-9,5.9-14.1C56.7,19,44.7,12,30,12S3.3,19,3,27.7C3,32.9,5.1,38,8.9,41.9   L25.9,59H30H34.1z"/>
	<path class="st0" d="M38.8,17c-0.1,0.4-0.3,0.8-0.9,0.8c-5.2-0.3-10.4-0.3-15.6,0.1c-0.6,0-0.9-0.4-0.9-0.9   C13.8,18.7,7.2,22.7,7,27.8C7,31.9,8.8,36,11.8,39l15.7,20h4.9l15.7-20c3-3.1,4.8-7.2,4.8-11.3C52.8,22.7,46.4,18.8,38.8,17z"/>
	<path class="st3" d="M20,29.9L19.8,28c0-0.1-5.3-2.4-5.9-3c-1,0.6-2.1,1.6-2.6,2.6c-0.4,0.7-0.4,1.6,0,2.3c1,1.7,2.8,3,3.5,3   c0.3,0,0.6-0.3,0.9-0.8C20,32,20.1,31.3,20,29.9z"/>
	<path class="st3" d="M46.1,25c-0.6,0.6-4.9,1.8-4.9,2c0,0.6-0.1,1.3-0.2,1.9c-0.1,1.4,3.6,1.9,3.3,3.3c0.3,0.5,0.6,0.8,0.9,0.8   c0.7,0,2.5-1.3,3.5-3c0.4-0.7,0.4-1.6,0-2.3C48.1,26.6,47.1,25.7,46.1,25z"/>
	<path class="st4" d="M39,42.7c-2.2,2.4-5.1,4.3-9,4.3s-6.8-1.9-9-4.3v8l6.5,8.3h4.9l6.5-8.3V42.7z"/>
	<path class="st3" d="M21,42.7v6.9c2.5,0.9,5.6,3.4,9,3.4s6.5-2.5,9-3.4v-6.9H21z"/>
	<g>
		<path class="st5" d="M45.1,26.1c-0.7-2.1-4-5.7-6.5-9.1c-2.8-0.6-5.8-1-8.6-1c-2.9,0-5.8,0.4-8.6,1c-2.4,3.4-5.7,7.1-6.5,9.2l0,0    c0.1,0.6,0.1,1.2,0.2,1.9c0.4,4.3,1.6,8.4,3.9,12c2.3,3.5,5.8,7,11,7s8.8-3.5,11-7c2.3-3.5,3.5-7.7,3.9-12    C45,27.4,45,26.7,45.1,26.1C45.1,26.1,45.1,26.1,45.1,26.1z"/>
	</g>
	<path class="st6" d="M14.9,26.2c0.7-2.1,4-5.7,6.5-9.2c-0.1,0-0.1,0-0.2,0c-4.2,1-7.9,2.6-10.6,4.7C12.3,23.5,14.9,25.9,14.9,26.2z   "/>
	<path class="st6" d="M45.1,26.1c-0.7-2.1-4-5.7-6.5-9.2c0.1,0,0.1,0,0.2,0c4.2,1,7.9,2.6,10.6,4.7C47.6,23.5,45.1,25.9,45.1,26.1z"/>
	<g>
		<path class="st7" d="M14,24.1c0,2.4,0.2,9.4,4.6,9.8C29.1,35,30,26.5,30,24.1C25,21.3,19,21.3,14,24.1z"/>
	</g>
	<path class="st7" d="M30,24.1c0,2.4,0.9,10.9,11.4,9.8c4.4-0.5,4.6-7.4,4.6-9.8C41,21.3,35,21.3,30,24.1z"/>
	<path class="st8" d="M34.1,60h-8.3c-0.3,0-0.5-0.1-0.7-0.3L8.2,42.6c-6.2-6.3-8-15.3-4.5-22.9c0.2-0.4,0.3-0.7,0.5-1.1   c0.2-0.4,4.9-9.9,12.9-15.3C20.3,1.1,24.1,0,28,0H32c4,0,7.7,1.1,10.9,3.2c8,5.4,12.7,14.9,12.9,15.3c0.2,0.4,0.4,0.7,0.5,1.1l0,0   c3.4,7.6,1.7,16.6-4.5,22.9L34.9,59.7C34.7,59.9,34.4,60,34.1,60z M26.3,58h7.4l16.6-16.8c5.6-5.7,7.2-13.8,4.1-20.7v0   c-0.2-0.3-0.3-0.7-0.5-1c-0.1-0.1-4.7-9.5-12.2-14.6C38.9,3,35.5,2,32,2H28c-3.6,0-6.9,1-9.8,2.9C10.7,10,6.1,19.3,6,19.4   c-0.2,0.4-0.3,0.7-0.5,1c-3.1,6.9-1.5,15,4.1,20.7L26.3,58z"/>
	<g>
		<path class="st8" d="M59,60H34.1c-0.4,0-0.8-0.2-0.9-0.6c-0.2-0.4-0.1-0.8,0.2-1.1l9.8-10c0.3-0.3,0.7-0.4,1.1-0.2    c2,0.9,3.9,1.7,5.6,2.3c5.6,2.2,10,3.9,10,8.6C60,59.6,59.6,60,59,60z M36.5,58h21.3c-0.6-2.4-3.5-3.7-8.6-5.7    c-1.5-0.6-3.3-1.3-5.1-2.1L36.5,58z"/>
		<path class="st8" d="M25.9,60H1c-0.6,0-1-0.4-1-1c0-4.6,4.4-6.3,10-8.6c1.7-0.7,3.6-1.4,5.6-2.3c0.4-0.2,0.8-0.1,1.1,0.2l9.8,10    c0.3,0.3,0.4,0.7,0.2,1.1C26.6,59.8,26.3,60,25.9,60z M2.1,58h21.3l-7.7-7.8c-1.8,0.8-3.5,1.5-5.1,2.1C5.6,54.3,2.7,55.6,2.1,58z"/>
	</g>
	<path class="st8" d="M34.1,60h-8.3c-0.3,0-0.5-0.1-0.7-0.3L8.2,42.6C4.3,38.6,2,33.1,2,27.7C2.3,18.3,14.6,11,30,11   s27.7,7.3,28,16.7c0,5.5-2.3,10.9-6.2,14.9L34.9,59.7C34.7,59.9,34.4,60,34.1,60z M26.3,58h7.4l16.6-16.8c3.6-3.6,5.6-8.5,5.6-13.4   C55.7,19.6,44.1,13,30,13S4.3,19.6,4,27.7c0,4.9,2.1,9.8,5.6,13.4L26.3,58z"/>
	<path class="st8" d="M32.5,60h-4.9c-0.3,0-0.6-0.1-0.8-0.4L11,39.7c-3.2-3.2-5-7.6-5-11.9C6.3,20.1,18.7,15,30,15s23.7,5.1,24,12.7   c0,4.4-1.9,8.7-5,12L33.3,59.6C33.1,59.9,32.8,60,32.5,60z M28,58h4l15.4-19.6c0,0,0-0.1,0.1-0.1c2.8-2.9,4.5-6.7,4.5-10.6   C51.7,21.6,40.2,17,30,17S8.3,21.6,8,27.8c0,3.8,1.7,7.7,4.5,10.5c0,0,0.1,0.1,0.1,0.1L28,58z"/>
	<path class="st8" d="M32.5,60h-4.9c-0.3,0-0.6-0.1-0.8-0.4l-6.5-8.3c-0.1-0.2-0.2-0.4-0.2-0.6v-8c0-0.4,0.3-0.8,0.6-0.9   c0.4-0.2,0.8,0,1.1,0.3c2.4,2.7,5.2,4,8.3,4s5.9-1.3,8.3-4c0.3-0.3,0.7-0.4,1.1-0.3c0.4,0.1,0.6,0.5,0.6,0.9v8   c0,0.2-0.1,0.4-0.2,0.6l-6.5,8.3C33.1,59.9,32.8,60,32.5,60z M28,58h4l6-7.6V45c-2.4,2-5.1,3-8,3s-5.6-1-8-3v5.4L28,58z"/>
	<path class="st8" d="M30,54c-2.5,0-4.8-1.2-6.8-2.3c-0.9-0.5-1.8-0.9-2.6-1.2C20.3,50.4,20,50,20,49.6v-6.9c0-0.4,0.3-0.8,0.6-0.9   c0.4-0.2,0.8,0,1.1,0.3c2.4,2.7,5.2,4,8.3,4s5.9-1.3,8.3-4c0.3-0.3,0.7-0.4,1.1-0.3c0.4,0.1,0.6,0.5,0.6,0.9v6.9   c0,0.4-0.3,0.8-0.7,0.9c-0.8,0.3-1.6,0.7-2.6,1.2C34.8,52.8,32.5,54,30,54z M22,48.9c0.7,0.3,1.4,0.7,2.2,1.1c1.9,1,3.8,2,5.8,2   s4-1,5.8-2c0.7-0.4,1.5-0.8,2.2-1.1V45c-2.4,2-5.1,3-8,3s-5.6-1-8-3V48.9z"/>
	<path class="st8" d="M48,57c-0.6,0-1-0.4-1-1V45c0-0.6,0.4-1,1-1s1,0.4,1,1v11C49,56.6,48.6,57,48,57z"/>
	<path class="st8" d="M12,57c-0.6,0-1-0.4-1-1V45c0-0.6,0.4-1,1-1s1,0.4,1,1v11C13,56.6,12.6,57,12,57z"/>
	<path class="st8" d="M29,37c-0.6,0-1-0.4-1-1s0.4-1,1-1c0.6,0,1-0.4,1-1c0-0.3-0.1-0.6-0.4-0.8c-0.4-0.3-0.5-1-0.2-1.4   c0.3-0.4,1-0.5,1.4-0.2C31.5,32.1,32,33,32,34C32,35.7,30.7,37,29,37z"/>
	<path class="st8" d="M31,44h-2c-0.6,0-1-0.4-1-1s0.4-1,1-1h2c0.6,0,1,0.4,1,1S31.5,44,31,44z"/>
	<path class="st8" d="M27.4,40.4c-1.7,0-2.8-0.5-2.8-0.5c-0.5-0.2-0.7-0.8-0.4-1.3c0.2-0.5,0.8-0.7,1.3-0.5c0.1,0,1.7,0.8,4.2,0   c0.5-0.2,1.1,0.1,1.3,0.6c0.2,0.5-0.1,1.1-0.6,1.3C29.2,40.3,28.2,40.4,27.4,40.4z"/>
	<path class="st8" d="M32.6,40.4c-0.8,0-1.8-0.1-2.9-0.5c-0.5-0.2-0.8-0.7-0.6-1.3c0.2-0.5,0.7-0.8,1.3-0.6c2.5,0.8,4.2,0.1,4.2,0   c0.5-0.2,1.1,0,1.3,0.5c0.2,0.5,0,1.1-0.4,1.3C35.4,39.9,34.3,40.4,32.6,40.4z"/>
	<g>
		<path class="st8" d="M20.4,35c-0.6,0-1.3,0-1.9-0.1C16,34.6,13,32.5,13,24.1c0-0.4,0.2-0.7,0.5-0.9c5.2-2.9,11.7-2.9,17,0    c0.3,0.2,0.5,0.5,0.5,0.9c0,1.6-0.3,5.8-3.4,8.5C25.8,34.2,23.4,35,20.4,35z M15,24.7c0.1,3.7,0.8,7.9,3.7,8.2    c3.3,0.3,5.9-0.3,7.6-1.8c2.2-1.9,2.6-4.9,2.7-6.4C24.6,22.5,19.4,22.5,15,24.7z"/>
		<path class="st8" d="M39.6,35c-3,0-5.4-0.8-7.2-2.5c-3-2.7-3.4-6.8-3.4-8.5c0-0.4,0.2-0.7,0.5-0.9c5.2-2.9,11.7-2.9,17,0    c0.3,0.2,0.5,0.5,0.5,0.9c0,8.5-3,10.6-5.5,10.8C40.9,35,40.2,35,39.6,35z M31,24.7c0.1,1.5,0.5,4.5,2.7,6.4    c1.7,1.6,4.3,2.2,7.6,1.8c2.9-0.3,3.6-4.5,3.7-8.2C40.6,22.5,35.4,22.5,31,24.7z"/>
	</g>
	<path class="st8" d="M19.1,30.7c-0.2,0-0.5-0.1-0.7-0.3c-0.4-0.4-0.4-1,0-1.4l6.9-7.3c0.4-0.4,1-0.4,1.4,0s0.4,1,0,1.4l-6.9,7.3   C19.6,30.6,19.4,30.7,19.1,30.7z"/>
	<path class="st8" d="M14.6,30.7c-0.2,0-0.5-0.1-0.7-0.3c-0.4-0.4-0.4-1-0.1-1.4l4.4-4.7c0.4-0.4,1-0.4,1.4-0.1   c0.4,0.4,0.4,1,0.1,1.4l-4.4,4.7C15.2,30.6,14.9,30.7,14.6,30.7z"/>
	<path class="st8" d="M46,26.1c-0.1,0-0.3,0-0.4-0.1c-0.4-0.2-0.6-0.5-0.6-1c0-0.2,0-0.3,0-0.4c-0.7-0.4-1.5-0.7-2.3-0.9   c-0.2-0.1-0.4-0.2-0.5-0.4c-0.5-0.7-1.1-1.5-1.7-2.3c-0.9-1.2-1.8-2.4-2.7-3.5c-0.2-0.3-0.2-0.8,0-1.1c0.2-0.3,0.6-0.5,1-0.4   c0,0,0.2,0,0.2,0c0,0,0,0,0.1,0c4.4,1,8.3,2.8,11,4.9c0.2,0.2,0.4,0.4,0.4,0.7c0,0.3-0.1,0.6-0.3,0.8l-1.3,1.3   c-0.7,0.7-1.5,1.5-2.1,2.1C46.5,26,46.2,26.1,46,26.1z M43.6,21.9c1,0.3,2,0.8,2.9,1.3c0,0,0,0,0,0c0.3-0.3,0.6-0.6,0.9-0.8   l0.5-0.5c-1.8-1.2-4.1-2.3-6.7-3.1c0.3,0.4,0.6,0.8,0.9,1.2C42.6,20.6,43.1,21.3,43.6,21.9z"/>
	<g>
		<path class="st8" d="M30,48c-4.6,0-8.7-2.6-11.9-7.5c-1.5-2.4-2.7-5.2-3.4-8.2c-0.1-0.5,0.1-0.9,0.6-1.1s1,0,1.2,0.3    c0.6,0.8,1.3,1.3,2.1,1.4c3.3,0.3,5.9-0.3,7.6-1.8c2.5-2.3,2.7-5.9,2.7-7c0-0.6,0.4-1,1-1s1,0.4,1,1c0,1.1,0.2,4.7,2.7,7    c1.7,1.6,4.3,2.2,7.6,1.8l0,0c0.9-0.1,1.6-0.5,2.1-1.4c0.3-0.4,0.8-0.5,1.2-0.3c0.4,0.2,0.7,0.7,0.6,1.1c-0.7,3-1.8,5.8-3.4,8.2    C38.7,45.4,34.6,48,30,48z M17.5,34.7c0.6,1.7,1.4,3.3,2.3,4.8C22.6,43.8,26,46,30,46s7.4-2.2,10.2-6.5c0.9-1.4,1.7-3,2.3-4.8    c-0.3,0.1-0.6,0.2-1,0.2c-3.9,0.4-7-0.4-9.2-2.3c-1.1-1-1.9-2.2-2.4-3.4c-0.5,1.2-1.3,2.4-2.4,3.4c-2.2,2-5.3,2.8-9.2,2.3    C18.1,34.9,17.8,34.8,17.5,34.7z"/>
		<path class="st8" d="M30,25.1c-0.2,0-0.3,0-0.5-0.1c-3.7-2.1-8.2-2.5-12.2-1.2c-0.4,0.1-0.9,0-1.1-0.4c-0.3-0.4-0.2-0.8,0-1.2    c0.5-0.7,1.1-1.5,1.8-2.3c0.9-1.1,1.8-2.3,2.6-3.5c0.1-0.2,0.4-0.3,0.6-0.4c2.9-0.7,6-1,8.9-1c2.9,0,5.9,0.4,8.8,1    c0.2,0.1,0.4,0.2,0.6,0.4c0.8,1.1,1.7,2.3,2.6,3.5c0.6,0.8,1.2,1.6,1.8,2.3c0.3,0.3,0.3,0.8,0,1.2c-0.3,0.4-0.7,0.5-1.1,0.4    c-4.1-1.3-8.5-0.9-12.2,1.2C30.3,25,30.2,25.1,30,25.1z M22,21c2.8,0,5.5,0.6,8,1.9c3.2-1.7,6.9-2.3,10.5-1.7c0,0,0,0-0.1-0.1    c-0.8-1.1-1.7-2.1-2.5-3.2c-2.7-0.6-5.4-0.9-8-0.9c-2.6,0-5.4,0.3-8,0.9c-0.8,1.1-1.6,2.2-2.5,3.2c0,0,0,0,0,0.1    C20.3,21.1,21.1,21,22,21z"/>
	</g>
	<path class="st8" d="M14,26.1c-0.3,0-0.5-0.1-0.7-0.3c-0.6-0.6-1.3-1.3-2.1-2.1l-1.3-1.3c-0.2-0.2-0.3-0.5-0.3-0.8   c0-0.3,0.2-0.5,0.4-0.7c2.6-2.1,6.5-3.8,11-4.9c0,0,0.1,0,0.2,0c0.4-0.1,0.9,0.1,1.1,0.5c0.2,0.3,0.3,0.8,0,1.1   c-0.8,1.2-1.8,2.4-2.7,3.5c-0.6,0.8-1.2,1.5-1.7,2.2c-0.1,0.2-0.3,0.3-0.5,0.4c-0.8,0.2-1.5,0.6-2.3,0.9c0,0.1,0,0.3,0,0.5   c0,0.4-0.2,0.8-0.6,1C14.3,26.1,14.1,26.1,14,26.1z M12.1,21.8l0.5,0.5c0.3,0.3,0.6,0.6,0.9,0.9c0,0,0,0,0,0   c0.9-0.5,1.9-0.9,2.8-1.3c0.5-0.6,1-1.3,1.6-2c0.3-0.4,0.6-0.8,0.9-1.2C16.2,19.5,13.9,20.6,12.1,21.8z"/>
	<path class="st8" d="M45.2,34c-0.7,0-1.3-0.4-1.8-1.3c-0.1-0.2-0.2-0.5-0.1-0.7l0-0.1c0-0.1,0.1-0.2,0.1-0.3   c0.9-1.3,1.4-3.5,1.5-6.4c0-0.3,0.1-0.5,0.3-0.7c0.3-0.3,0.9-0.5,1.3-0.2c0.8,0.5,2.2,1.5,3,3c0.5,1,0.5,2.3,0,3.3   C48.5,32.4,46.5,34,45.2,34z M46.9,26.9c-0.2,2-0.6,3.6-1.2,4.9c0.6-0.4,1.6-1.2,2.2-2.3c0.2-0.4,0.2-1,0-1.4l0,0   C47.6,27.7,47.3,27.3,46.9,26.9z"/>
	<path class="st8" d="M14.8,34c-1.3,0-3.3-1.6-4.4-3.5c-0.6-1-0.6-2.3,0-3.3c0.8-1.5,2.2-2.5,3-3c0.4-0.2,0.9-0.2,1.2,0.1l0.1,0.1   c0.2,0.2,0.3,0.4,0.3,0.7c0.1,2.9,0.6,5.1,1.5,6.4c0.1,0.1,0.1,0.2,0.2,0.4c0,0,0,0.1,0,0.1c0,0.2,0,0.5-0.1,0.7   C16.1,33.6,15.5,34,14.8,34z M13.1,26.9c-0.4,0.4-0.7,0.8-1,1.2c-0.2,0.4-0.2,1,0,1.4c0.6,1.1,1.6,1.9,2.2,2.3   C13.7,30.5,13.3,28.9,13.1,26.9z"/>
</g>
</svg>
